<svg width="20" height="20" viewBox="0 0 20 20" fill="none" xmlns="http://www.w3.org/2000/svg">
<g clip-path="url(#clip0_12_328)">
<path d="M10.8334 0H9.16671C8.50367 0 7.86778 0.263392 7.39894 0.732233C6.9301 1.20107 6.66671 1.83696 6.66671 2.5V3.33333H1.66671C1.44569 3.33333 1.23373 3.42113 1.07745 3.57741C0.921171 3.73369 0.833374 3.94565 0.833374 4.16667C0.833374 4.38768 0.921171 4.59964 1.07745 4.75592C1.23373 4.9122 1.44569 5 1.66671 5H2.50004V16.6667C2.50004 17.5507 2.85123 18.3986 3.47635 19.0237C4.10147 19.6488 4.94932 20 5.83337 20H14.1667C15.0508 20 15.8986 19.6488 16.5237 19.0237C17.1489 18.3986 17.5 17.5507 17.5 16.6667V5H18.3334C18.5544 5 18.7664 4.9122 18.9226 4.75592C19.0789 4.59964 19.1667 4.38768 19.1667 4.16667C19.1667 3.94565 19.0789 3.73369 18.9226 3.57741C18.7664 3.42113 18.5544 3.33333 18.3334 3.33333H13.3334V2.5C13.3334 1.83696 13.07 1.20107 12.6011 0.732233C12.1323 0.263392 11.4964 0 10.8334 0ZM8.33337 2.5C8.33337 2.27899 8.42117 2.06702 8.57745 1.91074C8.73373 1.75446 8.94569 1.66667 9.16671 1.66667H10.8334C11.0544 1.66667 11.2664 1.75446 11.4226 1.91074C11.5789 2.06702 11.6667 2.27899 11.6667 2.5V3.33333H8.33337V2.5ZM15.8334 16.6667C15.8334 17.1087 15.6578 17.5326 15.3452 17.8452C15.0327 18.1577 14.6087 18.3333 14.1667 18.3333H5.83337C5.39135 18.3333 4.96742 18.1577 4.65486 17.8452C4.3423 17.5326 4.16671 17.1087 4.16671 16.6667V5H15.8334V16.6667Z" fill="#120E27"/>
<path d="M9.99996 7.5C9.77895 7.5 9.56698 7.5878 9.4107 7.74408C9.25442 7.90036 9.16663 8.11232 9.16663 8.33333V15C9.16663 15.221 9.25442 15.433 9.4107 15.5893C9.56698 15.7455 9.77895 15.8333 9.99996 15.8333C10.221 15.8333 10.4329 15.7455 10.5892 15.5893C10.7455 15.433 10.8333 15.221 10.8333 15V8.33333C10.8333 8.11232 10.7455 7.90036 10.5892 7.74408C10.4329 7.5878 10.221 7.5 9.99996 7.5Z" fill="#120E27"/>
<path d="M12.5 15C12.5 15.221 12.5878 15.433 12.7441 15.5893C12.9004 15.7455 13.1123 15.8333 13.3333 15.8333C13.5543 15.8333 13.7663 15.7455 13.9226 15.5893C14.0789 15.433 14.1667 15.221 14.1667 15V8.33333C14.1667 8.11232 14.0789 7.90036 13.9226 7.74408C13.7663 7.5878 13.5543 7.5 13.3333 7.5C13.1123 7.5 12.9004 7.5878 12.7441 7.74408C12.5878 7.90036 12.5 8.11232 12.5 8.33333V15Z" fill="#120E27"/>
<path d="M6.66671 7.5C6.44569 7.5 6.23373 7.5878 6.07745 7.74408C5.92117 7.90036 5.83337 8.11232 5.83337 8.33333V15C5.83337 15.221 5.92117 15.433 6.07745 15.5893C6.23373 15.7455 6.44569 15.8333 6.66671 15.8333C6.88772 15.8333 7.09968 15.7455 7.25596 15.5893C7.41224 15.433 7.50004 15.221 7.50004 15V8.33333C7.50004 8.11232 7.41224 7.90036 7.25596 7.74408C7.09968 7.5878 6.88772 7.5 6.66671 7.5Z" fill="#120E27"/>
</g>
<defs>
<clipPath id="clip0_12_328">
<rect width="20" height="20" fill="white"/>
</clipPath>
</defs>
</svg>
