<svg xmlns="http://www.w3.org/2000/svg" width="28" height="28" fill="none"><g stroke="#ECA225" stroke-width="2" clip-path="url(#a)"><path stroke-miterlimit="10" d="M17.95 24.36a6.7 6.7 0 1 0 0-13.41 6.7 6.7 0 0 0 0 13.41Z"/><path stroke-linecap="round" stroke-linejoin="round" d="m22.57 22.57 4.86 4.86M14.06 25.92a11.96 11.96 0 1 1 11.96-11.96"/><path stroke-linecap="round" stroke-miterlimit="10" d="M14.06 2v10.14"/><path stroke-linecap="round" stroke-linejoin="round" d="M11.29 20.04c-2.26.11-4.5.54-6.64 1.28"/><path stroke-miterlimit="10" d="M4.65 6.6c2.19.84 5.59 1.38 9.41 1.38 3.83 0 7.23-.54 9.42-1.38"/><path stroke-linecap="round" stroke-linejoin="round" d="M20.95 10.61C20.08 5.64 17.33 2 14.06 2 10.1 2 6.9 7.35 6.9 13.96c0 6.6 3.21 11.96 7.17 11.96M12.46 13.96H2"/></g><defs><clipPath id="a"><path fill="#fff" d="M0 0h28v28H0z"/></clipPath></defs></svg>