<svg xmlns="http://www.w3.org/2000/svg" width="103" height="26" fill="none"><path fill="#141313" d="M1.9 21V7.17h3.93c1.38 0 2.56.2 3.52.63a6.15 6.15 0 0 1 3.63 3.95c.28.83.41 1.68.41 2.52a6.55 6.55 0 0 1-4.26 6.27c-.81.3-1.7.46-2.63.46H1.9Zm2.22-2.13H6.1c.73 0 1.4-.1 2.01-.3.61-.22 1.14-.52 1.58-.91.46-.4.8-.91 1.04-1.5.26-.6.38-1.28.38-2.04 0-.86-.14-1.6-.43-2.2a4.35 4.35 0 0 0-2.62-2.36 5.2 5.2 0 0 0-1.62-.26H4.12v9.57Zm11.8-5.9h2.13V21h-2.13v-8.04Zm-.1-2.88c0-.33.13-.6.38-.81.27-.22.55-.33.86-.33.3 0 .57.11.81.33.26.21.38.48.38.81 0 .33-.12.6-.38.82-.24.2-.5.3-.81.3-.3 0-.6-.1-.86-.32a1 1 0 0 1-.38-.8Zm7.56 11.08c-.61 0-1.2-.1-1.75-.32s-1-.53-1.39-.95l.91-1.2c.36.34.7.6 1.05.76a2.56 2.56 0 0 0 1.65.15c.2-.06.36-.16.48-.28a.7.7 0 0 0 .19-.51.7.7 0 0 0-.27-.6c-.18-.15-.4-.27-.68-.36-.28-.1-.57-.2-.88-.28a3.15 3.15 0 0 1-1.55-.95c-.35-.42-.52-.9-.52-1.44a2.5 2.5 0 0 1 1.31-2.17c.45-.25 1-.38 1.68-.38.6 0 1.13.07 1.57.2.46.14.88.36 1.27.67l-.81 1.28c-.23-.22-.5-.38-.82-.5-.3-.12-.58-.2-.84-.2-.22-.02-.43.01-.6.09-.18.06-.33.16-.44.28a.68.68 0 0 0-.15.44c-.01.25.07.46.25.6.19.16.43.28.72.37.29.09.58.18.87.29.4.1.74.27 1.05.47.3.2.53.45.7.74.18.28.27.63.27 1.05a2.61 2.61 0 0 1-1.44 2.38 3.9 3.9 0 0 1-1.83.37Zm12.27-.91c-.36.29-.8.52-1.31.7a5.08 5.08 0 0 1-3.88-.27 4 4 0 0 1-1.58-1.46 4.43 4.43 0 0 1-.55-2.26 4.01 4.01 0 0 1 2.17-3.7 4.47 4.47 0 0 1 2.09-.52c.67 0 1.27.1 1.79.29.51.18.96.42 1.34.74l-1.06 1.39a3.31 3.31 0 0 0-1.88-.69 2.23 2.23 0 0 0-2.01 1.22c-.2.37-.3.8-.3 1.27a2.5 2.5 0 0 0 1.2 2.17c.39.21.82.32 1.32.32a2.47 2.47 0 0 0 1.6-.53l1.06 1.33Zm1.52-3.36c0-.81.19-1.54.57-2.19.38-.66.9-1.17 1.6-1.54.69-.38 1.47-.57 2.35-.57.9 0 1.68.2 2.33.57.68.37 1.2.88 1.56 1.54.37.65.55 1.38.55 2.19 0 .8-.18 1.54-.55 2.2a4.04 4.04 0 0 1-1.56 1.54c-.65.38-1.44.57-2.35.57-.86 0-1.64-.17-2.32-.51a4.01 4.01 0 0 1-1.61-1.5 4.45 4.45 0 0 1-.57-2.3Zm2.14.02c0 .46.1.9.3 1.29.2.38.49.68.84.9.36.24.75.35 1.18.35.47 0 .87-.11 1.22-.34.35-.23.62-.53.81-.91.2-.4.3-.83.3-1.3a2.7 2.7 0 0 0-1.11-2.22 2.14 2.14 0 0 0-1.22-.34c-.44 0-.84.12-1.2.36-.34.23-.61.53-.81.91-.2.38-.3.81-.3 1.3Zm12.24 4.29-4.62-8.25h2.53l2.9 6.04-1.3-.05 2.62-5.99h2.37l-4.4 8.25h-.1Zm9.86 0a5 5 0 0 1-2.43-.55 3.78 3.78 0 0 1-1.54-1.52 4.61 4.61 0 0 1 .08-4.41 4.6 4.6 0 0 1 3.93-2.13c1.1 0 2 .33 2.72.97.72.63 1.2 1.53 1.44 2.7l-6.48 2.18-.5-1.2 5.06-1.8-.44.25a2.4 2.4 0 0 0-.68-.99c-.3-.28-.74-.42-1.3-.42-.44 0-.83.11-1.17.33-.34.2-.62.49-.82.87-.19.37-.28.8-.28 1.31 0 .52.1.98.32 1.37.22.4.5.7.87.91.37.2.79.3 1.26.3.33 0 .64-.05.95-.17.3-.11.59-.26.85-.45l.97 1.57c-.42.27-.88.49-1.38.65-.5.15-.97.23-1.43.23Zm8.21-8.25.2 2.28-.08-.32c.22-.48.53-.9.93-1.23.4-.36.81-.63 1.23-.8.42-.2.76-.29 1.03-.29l-.1 2.13c-.6-.05-1.14.06-1.6.34a2.9 2.9 0 0 0-1.4 2.47V21H67.7v-8.04h1.92Z"/><g stroke="#ECA225" stroke-width="2" clip-path="url(#a)"><path stroke-miterlimit="10" d="M93.66 22.62a6.23 6.23 0 1 0 0-12.46 6.23 6.23 0 0 0 0 12.46Z"/><path stroke-linecap="round" stroke-linejoin="round" d="m97.96 20.96 4.51 4.51M90.06 24.07a11.1 11.1 0 1 1 11.1-11.1"/><path stroke-linecap="round" stroke-miterlimit="10" d="M90.06 1.86v9.4"/><path stroke-linecap="round" stroke-linejoin="round" d="M87.48 18.6c-2.1.11-4.17.51-6.16 1.2"/><path stroke-miterlimit="10" d="M81.32 6.13c2.03.78 5.19 1.28 8.74 1.28s6.7-.5 8.74-1.28"/><path stroke-linecap="round" stroke-linejoin="round" d="M96.46 9.85c-.81-4.62-3.37-8-6.4-8-3.68 0-6.66 4.98-6.66 11.11 0 6.13 2.98 11.1 6.66 11.1M88.57 12.96h-9.71"/></g><defs><clipPath id="a"><path fill="#fff" d="M77 0h26v26H77z"/></clipPath></defs></svg>