<svg xmlns="http://www.w3.org/2000/svg" width="32" height="32" fill="none"><g fill="#ECA225" clip-path="url(#a)"><path d="M16 17v8H6v-8h10Zm0-2H6a2 2 0 0 0-2 2v8a2 2 0 0 0 2 2h10a2 2 0 0 0 2-2v-8a2 2 0 0 0-2-2ZM27 6v5H17V6h10Zm0-2H17a2 2 0 0 0-2 2v5a2 2 0 0 0 2 2h10a2 2 0 0 0 2-2V6a2 2 0 0 0-2-2ZM27 17v5h-5v-5h5Zm0-2h-5a2 2 0 0 0-2 2v5a2 2 0 0 0 2 2h5a2 2 0 0 0 2-2v-5a2 2 0 0 0-2-2ZM11 6v5H6V6h5Zm0-2H6a2 2 0 0 0-2 2v5a2 2 0 0 0 2 2h5a2 2 0 0 0 2-2V6a2 2 0 0 0-2-2Z"/></g><defs><clipPath id="a"><path fill="#fff" d="M0 0h32v32H0z"/></clipPath></defs></svg>