<svg xmlns="http://www.w3.org/2000/svg" width="96" height="32" fill="none">
   <g fill="#ECA225" clip-path="url(#a)">
      <path
         d="M80 17v8H70v-8h10Zm0-2H70a2 2 0 0 0-2 2v8a2 2 0 0 0 2 2h10a2 2 0 0 0 2-2v-8a2 2 0 0 0-2-2ZM91 6v5H81V6h10Zm0-2H81a2 2 0 0 0-2 2v5a2 2 0 0 0 2 2h10a2 2 0 0 0 2-2V6a2 2 0 0 0-2-2ZM91 17v5h-5v-5h5Zm0-2h-5a2 2 0 0 0-2 2v5a2 2 0 0 0 2 2h5a2 2 0 0 0 2-2v-5a2 2 0 0 0-2-2ZM75 6v5h-5V6h5Zm0-2h-5a2 2 0 0 0-2 2v5a2 2 0 0 0 2 2h5a2 2 0 0 0 2-2V6a2 2 0 0 0-2-2Z" />
   </g>
   <path fill="#2f2857"
      d="M12.9 21.73a2.8 2.8 0 0 1-.8.51 9.2 9.2 0 0 1-2.49.78 8.44 8.44 0 0 1-4.31-.38 6.28 6.28 0 0 1-3.76-3.55 8.2 8.2 0 0 1 .08-5.85 6.56 6.56 0 0 1 3.81-3.75 7.81 7.81 0 0 1 2.72-.47 8.94 8.94 0 0 1 4.16 1l-.72 2.05a7.5 7.5 0 0 0-3.15-.84c-.8 0-1.52.12-2.15.35a4.26 4.26 0 0 0-2.62 2.55 5.93 5.93 0 0 0 .02 4.03 4.5 4.5 0 0 0 2.64 2.46 6.8 6.8 0 0 0 3.3.2c.4-.06.75-.18 1.03-.35v-2.3H8.07v-2.12h4.83v5.68Zm6.3 1.48c-.75 0-1.44-.16-2.06-.48a3.5 3.5 0 0 1-1.45-1.4 4.72 4.72 0 0 1-.53-2.34c0-.91.18-1.69.55-2.34a4 4 0 0 1 3.5-2.05 3.38 3.38 0 0 1 2.98 1.54l-.11.3.2-1.48h1.96V23h-2.13v-1.96l.21.52-.3.38c-.15.16-.36.34-.63.55-.26.2-.58.37-.95.51-.35.14-.77.2-1.23.2Zm.6-1.75c.38 0 .72-.07 1.02-.2.32-.15.58-.34.8-.6.23-.25.4-.55.5-.9V18c-.1-.33-.27-.61-.5-.85-.23-.26-.5-.45-.84-.6a2.62 2.62 0 0 0-2.26.12c-.36.22-.66.52-.9.9-.2.38-.31.81-.31 1.3a2.56 2.56 0 0 0 2.49 2.6Zm7.38-13.28h2.13V23h-2.13V8.18Zm5.05 0h2.12V23h-2.12V8.18Zm8.88 15.03a5 5 0 0 1-2.43-.55 3.79 3.79 0 0 1-1.54-1.52 4.61 4.61 0 0 1 .08-4.41 4.6 4.6 0 0 1 3.93-2.13c1.1 0 2 .33 2.72.97.72.63 1.2 1.53 1.44 2.7l-6.48 2.18-.5-1.2 5.06-1.8-.44.25a2.4 2.4 0 0 0-.68-.99c-.3-.28-.73-.42-1.3-.42-.43 0-.83.11-1.17.33-.34.2-.61.49-.82.87-.19.37-.28.8-.28 1.31 0 .52.1.98.32 1.37.22.4.5.7.88.91.36.2.78.3 1.25.3.33 0 .65-.05.95-.17.3-.11.59-.26.85-.45l.97 1.57c-.41.27-.88.49-1.38.65-.5.15-.97.23-1.43.23Zm8.21-8.25.2 2.28-.08-.32c.23-.48.54-.9.93-1.24.4-.35.82-.62 1.23-.8.42-.18.76-.28 1.03-.28l-.1 2.13c-.6-.05-1.14.06-1.6.34a2.9 2.9 0 0 0-1.4 2.47V23H47.4v-8.04h1.92Zm6.15 11.9 5.34-11.9h1.94l-5.19 11.9h-2.09Zm2.07-3.8-3.91-8.1h2.4l3.15 7.01-1.64 1.09Z" />
   <defs>
      <clipPath id="a">
         <path fill="#2f2857" d="M64 0h32v32H64z" />
      </clipPath>
   </defs>
</svg>