<svg width="18" height="18" viewBox="0 0 18 18" fill="none" xmlns="http://www.w3.org/2000/svg">
<path d="M10.9216 6.83437L7.51956 7.26075L7.39806 7.8255L8.06743 7.947C8.50281 8.05163 8.58943 8.208 8.49493 8.64338L7.39806 13.7925C7.11118 15.1234 7.55556 15.75 8.59843 15.75C9.40843 15.75 10.3467 15.3765 10.7731 14.8624L10.9036 14.2447C10.6077 14.5057 10.1723 14.6104 9.88543 14.6104C9.47706 14.6104 9.32968 14.3235 9.43318 13.8184L10.9216 6.83437ZM11.0239 3.735C11.0239 4.12885 10.8675 4.50656 10.589 4.78505C10.3105 5.06354 9.93278 5.22 9.53893 5.22C9.14509 5.22 8.76737 5.06354 8.48888 4.78505C8.21039 4.50656 8.05393 4.12885 8.05393 3.735C8.05393 3.34115 8.21039 2.96344 8.48888 2.68495C8.76737 2.40645 9.14509 2.25 9.53893 2.25C9.93278 2.25 10.3105 2.40645 10.589 2.68495C10.8675 2.96344 11.0239 3.34115 11.0239 3.735Z" fill="#120E27"/>
</svg>
