<svg width="22" height="22" viewBox="0 0 22 22" fill="none" xmlns="http://www.w3.org/2000/svg">
   <path
      d="M11 19.745C10.7281 19.7457 10.4587 19.6926 10.2074 19.5887C9.95607 19.4849 9.72776 19.3324 9.53561 19.14L2.45436 12.0588C1.89497 11.4933 1.45369 10.8221 1.15625 10.0844C0.85881 9.34674 0.711144 8.55722 0.721857 7.76188C0.727247 7.03302 0.876379 6.31238 1.16071 5.64125C1.44504 4.97011 1.85899 4.36167 2.37883 3.85076C2.89868 3.33985 3.51422 2.93653 4.19018 2.66388C4.86615 2.39123 5.58926 2.25462 6.31811 2.26188C7.06 2.2544 7.79583 2.39599 8.48198 2.67824C9.16812 2.9605 9.79059 3.37766 10.3125 3.905L11 4.5925L11.5637 4.02875C12.5372 3.02952 13.8398 2.41692 15.2302 2.30442C16.6207 2.19192 18.0048 2.58714 19.1262 3.41688C19.7646 3.90847 20.2909 4.53043 20.6701 5.24134C21.0493 5.95224 21.2726 6.73577 21.3253 7.53976C21.378 8.34374 21.2588 9.14973 20.9756 9.90404C20.6925 10.6583 20.2518 11.3437 19.6831 11.9144L12.4644 19.14C12.2722 19.3324 12.0439 19.4849 11.7926 19.5887C11.5413 19.6926 11.2719 19.7457 11 19.745ZM6.29061 3.63C5.19784 3.62889 4.14751 4.05297 3.36186 4.8125C2.96132 5.19788 2.64279 5.66022 2.42541 6.17178C2.20803 6.68334 2.09627 7.23355 2.09686 7.78938C2.09083 8.40078 2.20623 9.0073 2.43636 9.57377C2.66649 10.1402 3.00677 10.6554 3.43748 11.0894L10.5187 18.1706C10.5826 18.2351 10.6587 18.2862 10.7425 18.3211C10.8262 18.356 10.9161 18.374 11.0069 18.374C11.0976 18.374 11.1875 18.356 11.2713 18.3211C11.355 18.2862 11.4311 18.2351 11.495 18.1706L18.7206 10.9381C19.1447 10.505 19.4724 9.98709 19.6822 9.41834C19.8919 8.84959 19.9789 8.2429 19.9375 7.63813C19.9008 7.02716 19.7325 6.43133 19.4441 5.89143C19.1558 5.35153 18.7542 4.8803 18.2669 4.51C17.4117 3.87949 16.3565 3.58137 15.2978 3.67117C14.2391 3.76097 13.2492 4.23258 12.5125 4.99813L11.4881 6.05C11.4242 6.11444 11.3482 6.16559 11.2644 6.20049C11.1806 6.23539 11.0907 6.25336 11 6.25336C10.9092 6.25336 10.8194 6.23539 10.7356 6.20049C10.6518 6.16559 10.5758 6.11444 10.5119 6.05L9.34311 4.88125C8.53812 4.08326 7.4516 3.63383 6.31811 3.63H6.29061Z"
      fill="#2f2857" />
</svg>