<svg xmlns="http://www.w3.org/2000/svg" width="75" height="28" fill="none">
   <g fill="#ECA225" fill-rule="evenodd" clip-path="url(#a)" clip-rule="evenodd">
      <path
         d="M14.03 0c2.19 0 4.35.5 6.3 1.48V14.1h-2.68V3.13a11.5 11.5 0 0 0-15.1 10.84c0 2.75 1 5.4 2.81 7.48v3.5A13.92 13.92 0 0 1 0 13.97 14 14 0 0 1 14.03 0Z" />
      <path
         d="M13.97 28c-2.19 0-4.35-.5-6.3-1.48V13.9h2.68v10.96a11.5 11.5 0 0 0 15.1-10.84c0-2.75-1-5.4-2.82-7.48v-3.5A13.92 13.92 0 0 1 28 14.03 14 14 0 0 1 13.97 28Z" />
   </g>
   <path fill="#2f2857"
      d="M12.9 7.17h2.22V21H12.9V7.17Zm7.51 5.8.2 1.63-.08-.14a3.5 3.5 0 0 1 1.23-1.36c.53-.33 1.15-.5 1.84-.5.45 0 .84.07 1.18.21.34.14.63.34.86.59.24.25.4.57.47.95l-.11.04c.33-.55.75-.98 1.27-1.3.52-.32 1.07-.49 1.65-.49.79 0 1.42.23 1.89.69.46.44.7 1.02.72 1.73V21h-2.11v-5.15c-.01-.4-.1-.71-.25-.97s-.44-.41-.85-.44c-.46 0-.85.15-1.18.44-.33.28-.6.65-.78 1.1a3.8 3.8 0 0 0-.27 1.43V21h-2.14v-5.15c-.02-.4-.1-.71-.27-.97-.16-.26-.46-.41-.87-.44-.45 0-.83.15-1.16.44-.33.28-.59.65-.76 1.1-.18.45-.27.92-.27 1.41V21H18.5v-8.04h1.92Zm17.42 8.24c-.76 0-1.45-.16-2.07-.48a3.5 3.5 0 0 1-1.44-1.4 4.72 4.72 0 0 1-.53-2.34c0-.91.18-1.69.55-2.34a4 4 0 0 1 3.5-2.05 3.38 3.38 0 0 1 2.98 1.54l-.12.3.21-1.48h1.96V21h-2.13v-1.96l.2.52a4.93 4.93 0 0 1-.93.93c-.26.2-.58.37-.94.51s-.77.2-1.24.2Zm.6-1.75c.37 0 .71-.07 1.02-.2.31-.15.58-.34.8-.6.22-.25.39-.55.49-.9V16c-.1-.33-.27-.61-.5-.85-.22-.26-.5-.45-.83-.6a2.62 2.62 0 0 0-2.26.12c-.37.22-.67.52-.9.9-.21.38-.32.81-.32 1.3a2.56 2.56 0 0 0 2.5 2.6Zm11.38 5.55a4.8 4.8 0 0 1-2.95-.84c-.34-.24-.68-.5-1-.76l1.26-1.46c.36.34.75.63 1.16.86.41.22.91.34 1.5.34.52 0 .97-.1 1.35-.27.39-.18.7-.42.9-.74.22-.32.34-.7.35-1.14v-2l.13.4c-.21.5-.6.92-1.18 1.28-.57.35-1.27.53-2.12.53a3.92 3.92 0 0 1-3.52-2.1 4.34 4.34 0 0 1-.55-2.18 4.3 4.3 0 0 1 2.11-3.76 4.41 4.41 0 0 1 3.93-.19c.56.26.98.57 1.26.95l-.12.3.23-1.27h1.96v8.08c0 .75-.2 1.42-.61 2.01-.4.61-.94 1.09-1.65 1.43-.7.35-1.51.53-2.44.53Zm-2.52-8.13c0 .48.1.92.32 1.3.23.4.53.71.91.94a2.85 2.85 0 0 0 2.43.13 2.48 2.48 0 0 0 1.43-1.48v-1.75a2.1 2.1 0 0 0-.55-.87 2.48 2.48 0 0 0-.88-.6c-.32-.13-.7-.2-1.12-.2a2.47 2.47 0 0 0-2.22 1.22c-.21.38-.32.81-.32 1.3Zm13.99 4.33a5 5 0 0 1-2.43-.55 3.78 3.78 0 0 1-1.54-1.52 4.61 4.61 0 0 1 .07-4.41 4.6 4.6 0 0 1 3.93-2.13c1.1 0 2.01.33 2.72.97.72.63 1.2 1.53 1.45 2.7L59 18.45l-.5-1.2 5.06-1.8-.44.25a2.4 2.4 0 0 0-.68-.99c-.3-.28-.74-.42-1.3-.42-.44 0-.83.11-1.17.33-.35.2-.62.49-.82.87-.19.37-.29.8-.29 1.31 0 .52.11.98.33 1.37.21.4.5.7.87.91.37.2.79.3 1.26.3.32 0 .64-.05.95-.17.3-.11.58-.26.85-.45l.97 1.57c-.42.27-.88.49-1.39.65-.5.15-.97.23-1.42.23Zm8.7-.04c-.6 0-1.19-.1-1.74-.32s-1.01-.53-1.4-.95l.92-1.2c.36.34.7.6 1.05.76a2.56 2.56 0 0 0 1.65.15c.2-.06.36-.16.47-.28a.7.7 0 0 0 .2-.51.7.7 0 0 0-.27-.6c-.18-.15-.4-.27-.69-.36-.28-.1-.57-.2-.87-.28a3.15 3.15 0 0 1-1.56-.95c-.34-.42-.51-.9-.51-1.44a2.5 2.5 0 0 1 1.31-2.17c.44-.25 1-.38 1.67-.38.6 0 1.14.07 1.58.2.45.14.88.36 1.27.67l-.82 1.28c-.22-.22-.5-.38-.81-.5-.3-.12-.59-.2-.84-.2-.23-.02-.43.01-.6.09-.18.06-.33.16-.44.28a.68.68 0 0 0-.16.44c0 .25.07.46.25.6.2.16.43.28.72.37.3.09.59.18.88.29.39.1.74.27 1.04.47.3.2.54.45.7.74.18.28.27.63.27 1.05a2.61 2.61 0 0 1-1.44 2.38 3.9 3.9 0 0 1-1.83.37Z" />
   <defs>
      <clipPath id="a">
         <path fill="#2f2857" d="M0 0h28v28H0z" />
      </clipPath>
   </defs>
</svg>